<?xml version="1.0" encoding="utf-8"?>
<!-- Generator: Adobe Illustrator 23.0.1, SVG Export Plug-In . SVG Version: 6.00 Build 0)  -->
<svg version="1.1" id="Capa_1" xmlns="http://www.w3.org/2000/svg" xmlns:xlink="http://www.w3.org/1999/xlink" x="0px" y="0px"
	 viewBox="0 0 146.82 66.88" enable-background="new 0 0 146.82 66.88" xml:space="preserve">
<g>
	<path fill-rule="evenodd" clip-rule="evenodd" fill="#FFFFFF" d="M31.24,40.38c0,1.4-0.4,2.8-1.2,4.1c-0.8,1.4-2,2.6-3.5,3.7
		c-1.5,1.1-3.4,2-5.5,2.7c-2.2,0.7-4.6,1-7.2,1c-1.4,0-2.7-0.1-4-0.2c-1.2-0.1-2.4-0.3-3.4-0.6c-1.1-0.2-2.1-0.5-3.1-0.9
		c-1-0.3-2-0.7-3-1.1l2.2-5.6c0.6,0.4,1.5,0.7,2.6,1.1c1.1,0.4,2.2,0.8,3.5,1.1c1.3,0.4,2.5,0.6,3.8,0.9c1.3,0.2,2.4,0.3,3.5,0.3
		c1.2,0,2.2-0.1,2.9-0.2c0.8-0.1,1.5-0.3,2.1-0.5c0.7-0.2,1.2-0.8,1.6-1.6c0.4-0.9,0.6-2,0.6-3.4c0-1.3-0.5-2.3-1.6-3.1
		s-2.4-1.4-3.9-2c-1.6-0.6-3.3-1.1-5.1-1.7c-1.8-0.6-3.5-1.3-5.1-2.2c-1.6-0.9-2.9-2-3.9-3.4c-1.1-1.4-1.6-3.2-1.6-5.5
		c0-1.1,0.4-2.3,1.1-3.5s1.8-2.3,3.1-3.4c1.4-1,3-1.9,5.1-2.5c2-0.7,4.3-1,6.8-1c2,0,4,0.1,5.9,0.2c1.9,0.2,3.7,0.4,5.5,0.7
		l-1.4,5.6c-0.8-0.2-1.7-0.5-2.8-0.7c-1-0.2-2.1-0.4-3.2-0.6s-2.1-0.3-3.1-0.4s-1.9-0.1-2.7-0.1c-0.9,0-1.7,0-2.4,0.1
		c-0.7,0.1-1.4,0.3-2,0.6c-0.6,0.3-1,0.7-1.2,1.4c-0.3,0.7-0.4,1.5-0.4,2.4c0,1,0.3,1.8,0.9,2.4c0.6,0.6,1.4,1.2,2.4,1.7
		s2.1,0.9,3.4,1.3s2.6,0.8,3.9,1.3s2.6,1,3.9,1.6s2.4,1.3,3.4,2.2c1,0.9,1.8,1.9,2.4,3.1C30.94,37.08,31.24,38.58,31.24,40.38z"/>
	<rect x="38.74" y="13.58" fill-rule="evenodd" clip-rule="evenodd" fill="#FFFFFF" width="9.1" height="37.9"/>
	<path fill-rule="evenodd" clip-rule="evenodd" fill="#FFFFFF" d="M98.94,32.38c0,3-0.5,5.7-1.4,8.1c-0.9,2.4-2.3,4.5-4.2,6.2
		c-1.9,1.7-4.2,3-7,3.9s-6.1,1.4-9.8,1.4c-3.8,0-7.1-0.5-9.9-1.4c-2.7-0.9-5-2.3-6.7-4s-3-3.8-3.9-6.2c-0.8-2.4-1.2-5.1-1.2-8.1
		s0.4-5.6,1.3-8c0.8-2.4,2.2-4.4,3.9-6.1c1.8-1.7,4-3,6.8-3.8c2.7-0.9,6-1.3,9.8-1.3s7,0.4,9.8,1.3s5.1,2.2,7,3.8
		c1.9,1.7,3.3,3.7,4.2,6.1C98.44,26.78,98.94,29.38,98.94,32.38z M89.44,32.38c0-2.3-0.2-4.4-0.7-6.2c-0.5-1.8-1.3-3.4-2.3-4.7
		c-1.1-1.3-2.4-2.2-4-2.9c-1.6-0.7-3.6-1-5.8-1c-2,0-3.8,0.2-5.5,0.5s-3,0.8-4,1.5c-1,0.6-1.7,2-2.2,4.1s-0.7,5-0.7,8.7
		c0,2.3,0.2,4.3,0.6,6.2c0.4,1.8,1.1,3.4,2,4.8c1,1.3,2.2,2.4,3.8,3.1c1.6,0.7,3.5,1.1,5.9,1.1s4.4-0.2,6-0.5c1.6-0.4,2.9-0.8,4-1.4
		c0.5-0.3,1-0.8,1.3-1.6c0.4-0.8,0.7-1.8,0.9-3c0.3-1.2,0.4-2.5,0.6-4C89.44,35.48,89.44,33.88,89.44,32.38z"/>
	<path fill-rule="evenodd" clip-rule="evenodd" fill="#FFFFFF" d="M142.24,51.68l-31.5-26.6h-0.1c0.1,2.2,0.2,4.3,0.3,6.1
		c0,0.8,0,1.6,0.1,2.4c0,0.8,0,1.5,0,2.2s0,1.3,0,1.8s0,0.9,0,1.1v12.8h-5.3v-38.2h4l31.6,26.5c0-2.1,0-18.3,0-18.3
		c1.7,2.7,4.4,8.9,5.1,15.1v15.1C146.44,51.68,142.24,51.68,142.24,51.68z"/>
	<path fill-rule="evenodd" clip-rule="evenodd" fill="#D51D1A" d="M141.24,13.58c-2.5-1-7,0.5-8.1,2.3c11.8,2.4,12.8,15.9,13.2,18.5
		C146.34,15.98,141.24,13.58,141.24,13.58z"/>
	<g>
		<path fill-rule="evenodd" clip-rule="evenodd" fill="#FFFFFF" d="M11.94,4.68c-0.2-0.4-0.6-0.6-1.1-0.8c-0.4-0.1-0.8-0.1-1.4-0.1
			c-0.9,0-1.5,0.1-1.9,0.4c-0.5,0.2-0.8,0.8-0.8,1.5c0,0.8,0.3,1.4,0.8,1.7c0.4,0.2,1,0.2,1.9,0.2c0.3,0,0.5,0,0.7,0s0.4,0,0.5-0.1
			c0.5-0.1,0.8-0.3,1.1-0.6v-0.7h-2.5v-0.9h3.4v3.4h-0.9v-0.6c-0.5,0.3-1.3,0.5-2.3,0.5c-1.1,0-1.9-0.2-2.5-0.6
			c-0.7-0.4-1.1-1.2-1.1-2.3s0.4-1.8,1.1-2.3c0.6-0.4,1.4-0.6,2.5-0.6c1.7,0,2.7,0.5,3.3,1.5L11.94,4.68z"/>
		<path fill-rule="evenodd" clip-rule="evenodd" fill="#FFFFFF" d="M23.44,4.48c0-0.5-0.8-0.8-2.3-0.8h-2.3v1.5h2.4
			C22.64,5.28,23.44,4.98,23.44,4.48z M23.24,8.58l-2.4-2.4h-2v2.4h-0.9v-5.8h3.1c0.9,0,1.6,0.1,2.1,0.2c0.9,0.3,1.3,0.7,1.3,1.5
			c0,1-0.8,1.6-2.4,1.6l2.4,2.5H23.24z"/>
		<path fill-rule="evenodd" clip-rule="evenodd" fill="#FFFFFF" d="M34.84,7.98c-0.45,0.39-1.2,0.6-2.3,0.6s-1.8-0.2-2.3-0.6
			c-0.7-0.5-1-1.2-1-2.3v-2.9h0.9v2.9c0,0.8,0.2,1.3,0.6,1.6c0.3,0.2,0.9,0.4,1.7,0.4s1.4-0.1,1.7-0.4c0.4-0.3,0.6-0.8,0.6-1.6v-2.9
			h0.9c0,0-0.01,2.18,0,2.9C35.65,6.77,35.56,7.41,34.84,7.98z"/>
		<path fill-rule="evenodd" clip-rule="evenodd" fill="#FFFFFF" d="M46.34,4.48c0-0.5-0.8-0.8-2.3-0.8h-2.3v1.5h2.4
			C45.64,5.28,46.34,4.98,46.34,4.48z M47.24,4.48c0,0.7-0.4,1.2-1.3,1.5c-0.5,0.1-1.2,0.2-2.1,0.2h-2.1v2.4h-0.9v-5.8h3.1
			c0.9,0,1.6,0.1,2.1,0.2C46.84,3.28,47.24,3.78,47.24,4.48z"/>
		<path fill-rule="evenodd" clip-rule="evenodd" fill="#FFFFFF" d="M57.94,5.68c0-0.8-0.3-1.3-0.8-1.6c-0.4-0.2-1-0.4-1.9-0.4
			c-0.8,0.1-1.4,0.2-1.8,0.4c-0.5,0.3-0.8,0.8-0.8,1.6s0.3,1.4,0.8,1.7c0.4,0.2,1,0.3,1.9,0.3s1.5-0.1,1.9-0.4
			C57.74,7.08,57.94,6.48,57.94,5.68z M58.94,5.68c0,1.1-0.4,1.8-1.1,2.3c-0.6,0.4-1.4,0.6-2.5,0.6s-1.9-0.2-2.5-0.6
			c-0.7-0.5-1.1-1.3-1.1-2.3c0-1.1,0.4-1.8,1.1-2.3c0.5-0.4,1.4-0.6,2.5-0.6s1.9,0.2,2.5,0.6C58.54,3.88,58.94,4.68,58.94,5.68z"/>
	</g>
</g>
<g>
	<path fill="#FFFFFF" d="M23.4,58.04h1.1v5.07h-1.1V58.04z"/>
	<path fill="#FFFFFF" d="M32.44,58.04h1.1v5.07h-1.1l-2.35-3.18v3.18H29v-5.07h1.03l2.42,3.27V58.04z"/>
	<path fill="#FFFFFF" d="M40.13,59.02v4.09h-1.1v-4.09h-1.4v-0.98h3.89v0.98H40.13z"/>
	<path fill="#FFFFFF" d="M49.17,58.04v1.01h-2.45v1.04h2.21v0.97h-2.21v1.05h2.53v1h-3.63v-5.07H49.17z"/>
	<path fill="#FFFFFF" d="M57.51,59.72c0,0.81-0.31,1.34-0.94,1.58l1.25,1.81h-1.35l-1.09-1.62h-0.76v1.62h-1.1v-5.07h1.87
		c0.77,0,1.31,0.13,1.64,0.4C57.34,58.71,57.51,59.13,57.51,59.72z M56.18,60.33c0.14-0.13,0.2-0.33,0.2-0.6s-0.07-0.46-0.21-0.56
		s-0.39-0.15-0.74-0.15h-0.82v1.5h0.8C55.79,60.52,56.04,60.45,56.18,60.33z"/>
	<path fill="#FFFFFF" d="M65.37,58.04h1.1v5.07h-1.1l-2.35-3.18v3.18h-1.1v-5.07h1.03l2.42,3.27V58.04z"/>
	<path fill="#FFFFFF" d="M74.47,63.11l-0.46-1.1h-2.07l-0.46,1.1h-1.17l2.13-5.07h1.06l2.13,5.07H74.47z M72.99,59.55l-0.62,1.47
		h1.23L72.99,59.55z"/>
	<path fill="#FFFFFF" d="M81.76,62.11c0.54,0,0.98-0.22,1.33-0.66l0.71,0.75c-0.56,0.65-1.22,0.97-1.98,0.97s-1.38-0.25-1.88-0.74
		c-0.49-0.49-0.74-1.12-0.74-1.87c0-0.75,0.25-1.38,0.75-1.88c0.5-0.5,1.11-0.75,1.84-0.75c0.81,0,1.49,0.32,2.03,0.95l-0.68,0.8
		c-0.35-0.44-0.78-0.67-1.3-0.67c-0.41,0-0.77,0.14-1.06,0.42s-0.44,0.65-0.44,1.13s0.14,0.85,0.42,1.14S81.37,62.11,81.76,62.11z"
		/>
	<path fill="#FFFFFF" d="M87.95,58.04h1.1v5.07h-1.1V58.04z"/>
	<path fill="#FFFFFF" d="M97.69,62.41c-0.5,0.5-1.11,0.75-1.84,0.75s-1.34-0.25-1.84-0.75s-0.75-1.12-0.75-1.87s0.25-1.37,0.75-1.87
		c0.5-0.5,1.11-0.75,1.84-0.75s1.34,0.25,1.84,0.75c0.5,0.5,0.75,1.12,0.75,1.87S98.19,61.91,97.69,62.41z M97.32,60.55
		c0-0.45-0.14-0.84-0.42-1.16s-0.63-0.48-1.04-0.48s-0.76,0.16-1.04,0.48s-0.42,0.71-0.42,1.16s0.14,0.84,0.42,1.15
		c0.28,0.32,0.63,0.47,1.04,0.47s0.76-0.16,1.04-0.47C97.17,61.39,97.32,61,97.32,60.55z"/>
	<path fill="#FFFFFF" d="M106.1,58.04h1.1v5.07h-1.1l-2.35-3.18v3.18h-1.1v-5.07h1.03l2.42,3.27V58.04z"/>
	<path fill="#FFFFFF" d="M115.21,63.11l-0.46-1.1h-2.07l-0.46,1.1h-1.17l2.13-5.07h1.06l2.13,5.07H115.21z M113.72,59.55l-0.62,1.47
		h1.23L113.72,59.55z"/>
	<path fill="#FFFFFF" d="M120.23,63.11v-5.07h1.1v4.06h2.1v1.01H120.23z"/>
</g>
<g>
	<rect x="0.34" y="60.81" fill="#FFFFFF" width="19.8" height="0.5"/>
</g>
<g>
	<rect x="126.62" y="60.81" fill="#FFFFFF" width="19.82" height="0.5"/>
</g>
</svg>
